/* XPM */
static char *result[] = {
/* columns rows colors chars-per-pixel */
"64 64 13 1 ",
"  c black",
". c #000008",
"X c #723323",
"o c #8C3F2B",
"O c #AF5000",
"+ c #EB6300",
"@ c #B76742",
"# c #B76744",
"$ c #C2734A",
"% c #C2734C",
"& c #EFA367",
"* c #FFC887",
"= c None",
/* pixels */
"===================.......................======================",
"===================.......................======================",
"===================.......................======================",
"===================.......................======================",
"================...@@@@@@@@@@@@@@@@@@@@@@@....==================",
"================...@@@@@@@@@@@@@@@@@@@@@@@....==================",
"================...@@@@@@@@@@@@@@@@@@@@@@@....==================",
"================...@@@@@@@@@@@@@@@@@@@@@@@....==================",
"============....###@@@@@@@@@@@@@@@@ooooooo####....==============",
"============....###@@@@@@@@@@@@@@@@ooooooo####....==============",
"============....###@@@@@@@@@@@@@@@@ooooooo####....==============",
"============....@@@@@@@@@@@@@@oooooooooooooooo....==============",
"============....@@@@@@@@@@@@@@oooooooooooooooo....==============",
"============....@@@@@@@@@@@@@@oooooooooooooooo....==============",
"============....@@@@@@@@@@@@@@oooooooooooooooo....==============",
"============....@@@oooo@@@@@@@oooooooooooooooo....==============",
"============....@@@oooo@@@@@@@oooooooooooooooo....==============",
"============....@@@oooo@@@@@@@oooooooooooooooo....==============",
"============....@@@oooo@@@@@@@oooooooooooooooo....==============",
"============....ooooooooooooooooooooooooooXXXX....==============",
"============....ooooooooooooooooooooooooooXXXX....==============",
"============....ooooooooooooooooooooooooooXXXX....==============",
"============....ooooooooooooooooooooooXXXXXXXX....==============",
"============....ooooooooooooooooooooooXXXXXXXX....==============",
"============....ooooooooooooooooooooooXXXXXXXX....==============",
"============....ooooooooooooooooooooooXXXXXXXX....==============",
"================...XXXX...............XXXX....==================",
"================...XXXX...............XXXX....==================",
"================...XXXX...............XXXX....==================",
"================...XXXX...............XXXX....==================",
"================.......+++++++++++++++........==================",
"================.......+++++++++++++++........==================",
"================.......+++++++++++++++........==================",
"================.......+++++++++++++++........==================",
"============....OOO++++OOOOOOOOOOOOOOO++++OOOO....==============",
"============....OOO++++OOOOOOOOOOOOOOO++++OOOO....==============",
"============....OOO++++OOOOOOOOOOOOOOO++++OOOO....==============",
"============....OOO++++OOOOOOOOOOOOOOO++++OOOO....==============",
"========...........OOOOOOOO++++++++OOOOOOO...........===========",
"========...........OOOOOOOO++++++++OOOOOOO...........===========",
"========...........OOOOOOOO++++++++OOOOOOO...........===========",
"========....&&&&%%%....OOOO++++++++OOO....%%%%&&&&***....=======",
"========....&&&&%%%....OOOO++++++++OOO....%%%%&&&&***....=======",
"========....&&&&%%%....OOOO++++++++OOO....%%%%&&&&***....=======",
"========....&&&&%%%....OOOO++++++++OOO....%%%%&&&&***....=======",
"============...........+++++++++++++++....%%%%%%%%&&&....=======",
"============...........+++++++++++++++....%%%%%%%%&&&....=======",
"============...........+++++++++++++++....%%%%%%%%&&&....=======",
"============...........+++++++++++++++....%%%%%%%%&&&....=======",
"===================....++++OOO.....OOO...............===========",
"===================....++++OOO.....OOO...............===========",
"===================....++++OOO.....OOO...............===========",
"===================....++++OOO.....OOO...............===========",
"===================....++++OOO.....$$$....======================",
"===================....++++OOO.....$$$....======================",
"===================....++++OOO.....$$$....======================",
"================..............................==================",
"================..............................==================",
"================..............................==================",
"================..............................==================",
"===================                       ======================",
"===================                       ======================",
"===================                       ======================",
"===================                       ======================"
};
