/* XPM */
static char *result[] = {
/* columns rows colors chars-per-pixel */
"64 64 31 1 ",
"  c #080000",
". c #2C2525",
"X c #6B0000",
"o c #77736C",
"O c #7B766F",
"+ c #B30000",
"@ c #FE0000",
"# c #837F77",
"$ c #847F78",
"% c #848078",
"& c #87837B",
"* c #88837B",
"= c #88847C",
"- c #8D8981",
"; c #8F8B82",
": c #918D85",
"> c #96928B",
", c #99938B",
"< c #9A968F",
"1 c #A39D94",
"2 c #A09D96",
"3 c #A3A09A",
"4 c #A6A39A",
"5 c #A9A69F",
"6 c #AAA7A0",
"7 c #ADAAA4",
"8 c #B2AFAA",
"9 c #B7B0A6",
"0 c #BCBAB3",
"q c #BEBBB7",
"w c #BEBCB7",
/* pixels */
"                                                                ",
"                                                                ",
"                                                                ",
"                                                                ",
"    77777777777766666666666688886666777766667777777777776666    ",
"    77777777777766666666666688886666777766667777777777776666    ",
"    77777777777766666666666688886666777766667777777777776666    ",
"    77777777777766666666666688886666777766667777777777776666    ",
"    77777777====%%%%OOOO%%%%%%%%%%%%%%%%============66668888    ",
"    77777777====%%%%OOOO%%%%%%%%%%%%%%%%============66668888    ",
"    77777777====%%%%OOOO%%%%%%%%%%%%%%%%============66668888    ",
"    77777777====%%%%OOOO%%%%%%%%%%%%%%%%============66668888    ",
"    7777====........6666%%%%........1111OOOO........wwww7777    ",
"    7777====........6666%%%%........1111OOOO........wwww7777    ",
"    7777====........6666%%%%........1111OOOO........wwww7777    ",
"    7777====........6666%%%%........1111OOOO........wwww7777    ",
"    6666%%%%........6666%%%%........6666%%%%........wwww7777    ",
"    6666%%%%........6666%%%%........6666%%%%........wwww7777    ",
"    6666%%%%........6666%%%%........6666%%%%........wwww7777    ",
"    6666%%%%........6666%%%%........6666%%%%........wwww7777    ",
"    6666%%%%........7777OOOO........6666OOOO........wwww6666    ",
"    6666%%%%........7777OOOO........6666OOOO........wwww6666    ",
"    6666%%%%........7777OOOO........6666OOOO........wwww6666    ",
"    6666%%%%........7777OOOO........6666OOOO........wwww6666    ",
"    6666%%%%........6666====........6666oooo........00006666    ",
"    6666%%%%........6666====........6666oooo........00006666    ",
"    6666%%%%........6666====........6666oooo........00006666    ",
"    6666%%%%........6666====........6666oooo........00006666    ",
"    7777====........6666%%%%........6666====........99997777    ",
"    7777====........6666%%%%........6666====........99997777    ",
"    7777====........6666%%%%........6666====........99997777    ",
"    7777====........6666%%%%........6666====........99997777    ",
"    7777&&&&........6666%%%%........4444%%%%            6666    ",
"    7777&&&&........6666%%%%........4444%%%%            6666    ",
"    7777&&&&........6666%%%%........4444%%%%            6666    ",
"    7777&&&&........6666%%%%........4444%%%%            6666    ",
"    6666666600009999wwwwwwwwwwwwqqqq0000    @@@@++++++++        ",
"    6666666600009999wwwwwwwwwwwwqqqq0000    @@@@++++++++        ",
"    6666666600009999wwwwwwwwwwwwqqqq0000    @@@@++++++++        ",
"    6666666600009999wwwwwwwwwwwwqqqq0000    @@@@++++++++        ",
"    66665555777722227777222266662222        XXXX    XXXX        ",
"    66665555777722227777222266662222        XXXX    XXXX        ",
"    66665555777722227777222266662222        XXXX    XXXX        ",
"    66665555777722227777222266662222        XXXX    XXXX        ",
"    >>>>2222>>>>3333<<<<,,,,>>>>2222    @@@@++++++++++++++++    ",
"    >>>>2222>>>>3333<<<<,,,,>>>>2222    @@@@++++++++++++++++    ",
"    >>>>2222>>>>3333<<<<,,,,>>>>2222    @@@@++++++++++++++++    ",
"    >>>>2222>>>>3333<<<<,,,,>>>>2222    @@@@++++++++++++++++    ",
"    $$$$####::::****----;;;;----####    @@@@++++    XXXX++++    ",
"    $$$$####::::****----;;;;----####    @@@@++++    XXXX++++    ",
"    $$$$####::::****----;;;;----####    @@@@++++    XXXX++++    ",
"    $$$$####::::****----;;;;----####    @@@@++++    XXXX++++    ",
"    %%%%========%%%%OOOO%%%%%%%%%%%%    ++++++++XXXXXXXX++++    ",
"    %%%%========%%%%OOOO%%%%%%%%%%%%    ++++++++XXXXXXXX++++    ",
"    %%%%========%%%%OOOO%%%%%%%%%%%%    ++++++++XXXXXXXX++++    ",
"    %%%%========%%%%OOOO%%%%%%%%%%%%    ++++++++XXXXXXXX++++    ",
"    %%%%&&&&%%%%%%%%%%%%%%%%%%%%%%%%OOOO                        ",
"    %%%%&&&&%%%%%%%%%%%%%%%%%%%%%%%%OOOO                        ",
"    %%%%&&&&%%%%%%%%%%%%%%%%%%%%%%%%OOOO                        ",
"    %%%%&&&&%%%%%%%%%%%%%%%%%%%%%%%%OOOO                        ",
"                                                                ",
"                                                                ",
"                                                                ",
"                                                                "
};
