/* XPM */
static char *result[] = {
/* columns rows colors chars-per-pixel */
"64 64 28 1 ",
"  c #080000",
". c #2C2525",
"X c #77736C",
"o c #7B766F",
"O c #837F77",
"+ c #847F78",
"@ c #848078",
"# c #87837B",
"$ c #88837B",
"% c #88847C",
"& c #8D8981",
"* c #8F8B82",
"= c #918D85",
"- c #96928B",
"; c #99938B",
": c #9A968F",
"> c #A39D94",
", c #A09D96",
"< c #A3A09A",
"1 c #A6A39A",
"2 c #A9A69F",
"3 c #AAA7A0",
"4 c #ADAAA4",
"5 c #B2AFAA",
"6 c #B7B0A6",
"7 c #BCBAB3",
"8 c #BEBBB7",
"9 c #BEBCB7",
/* pixels */
"                                                                ",
"                                                                ",
"                                                                ",
"                                                                ",
"    44444444444433333333333355553333444433334444444444443333    ",
"    44444444444433333333333355553333444433334444444444443333    ",
"    44444444444433333333333355553333444433334444444444443333    ",
"    44444444444433333333333355553333444433334444444444443333    ",
"    44444444%%%%@@@@oooo@@@@@@@@@@@@@@@@%%%%%%%%%%%%33335555    ",
"    44444444%%%%@@@@oooo@@@@@@@@@@@@@@@@%%%%%%%%%%%%33335555    ",
"    44444444%%%%@@@@oooo@@@@@@@@@@@@@@@@%%%%%%%%%%%%33335555    ",
"    44444444%%%%@@@@oooo@@@@@@@@@@@@@@@@%%%%%%%%%%%%33335555    ",
"    4444%%%%........3333@@@@........>>>>oooo........99994444    ",
"    4444%%%%........3333@@@@........>>>>oooo........99994444    ",
"    4444%%%%........3333@@@@........>>>>oooo........99994444    ",
"    4444%%%%........3333@@@@........>>>>oooo........99994444    ",
"    3333@@@@........3333@@@@........3333@@@@........99994444    ",
"    3333@@@@........3333@@@@........3333@@@@........99994444    ",
"    3333@@@@........3333@@@@........3333@@@@........99994444    ",
"    3333@@@@........3333@@@@........3333@@@@........99994444    ",
"    3333@@@@........4444oooo........3333oooo........99993333    ",
"    3333@@@@........4444oooo........3333oooo........99993333    ",
"    3333@@@@........4444oooo........3333oooo........99993333    ",
"    3333@@@@........4444oooo........3333oooo........99993333    ",
"    3333@@@@........3333%%%%........3333XXXX........77773333    ",
"    3333@@@@........3333%%%%........3333XXXX........77773333    ",
"    3333@@@@........3333%%%%........3333XXXX........77773333    ",
"    3333@@@@........3333%%%%........3333XXXX........77773333    ",
"    4444%%%%........3333@@@@........3333%%%%........66664444    ",
"    4444%%%%........3333@@@@........3333%%%%........66664444    ",
"    4444%%%%........3333@@@@........3333%%%%........66664444    ",
"    4444%%%%........3333@@@@........3333%%%%........66664444    ",
"    4444####........3333@@@@........1111%%%%        77773333    ",
"    4444####........3333@@@@........1111%%%%        77773333    ",
"    4444####........3333@@@@........1111%%%%        77773333    ",
"    4444####........3333@@@@........1111%%%%        77773333    ",
"    33333333777766669999@@@@99998888888833336666777777773333    ",
"    33333333777766669999@@@@99998888888833336666777777773333    ",
"    33333333777766669999@@@@99998888888833336666777777773333    ",
"    33333333777766669999@@@@99998888888833336666777777773333    ",
"    333322224444,,,,4444,,,,3333,,,,3333333333333333,,,,,,,,    ",
"    333322224444,,,,4444,,,,3333,,,,3333333333333333,,,,,,,,    ",
"    333322224444,,,,4444,,,,3333,,,,3333333333333333,,,,,,,,    ",
"    333322224444,,,,4444,,,,3333,,,,3333333333333333,,,,,,,,    ",
"    ----,,,,----<<<<::::;;;;----,,,,,,,,3333,,,,&&&&&&&&@@@@    ",
"    ----,,,,----<<<<::::;;;;----,,,,,,,,3333,,,,&&&&&&&&@@@@    ",
"    ----,,,,----<<<<::::;;;;----,,,,,,,,3333,,,,&&&&&&&&@@@@    ",
"    ----,,,,----<<<<::::;;;;----,,,,,,,,3333,,,,&&&&&&&&@@@@    ",
"    ++++OOOO====$$$$&&&&****&&&&&&&&3333,,,,&&&&@@@@@@@@oooo    ",
"    ++++OOOO====$$$$&&&&****&&&&&&&&3333,,,,&&&&@@@@@@@@oooo    ",
"    ++++OOOO====$$$$&&&&****&&&&&&&&3333,,,,&&&&@@@@@@@@oooo    ",
"    ++++OOOO====$$$$&&&&****&&&&&&&&3333,,,,&&&&@@@@@@@@oooo    ",
"    @@@@%%%%%%%%@@@@oooo@@@@@@@@&&&&&&&&&&&&@@@@@@@@@@@@oooo    ",
"    @@@@%%%%%%%%@@@@oooo@@@@@@@@&&&&&&&&&&&&@@@@@@@@@@@@oooo    ",
"    @@@@%%%%%%%%@@@@oooo@@@@@@@@&&&&&&&&&&&&@@@@@@@@@@@@oooo    ",
"    @@@@%%%%%%%%@@@@oooo@@@@@@@@&&&&&&&&&&&&@@@@@@@@@@@@oooo    ",
"    @@@@####@@@@@@@@@@@@@@@@@@@@@@@@oooo@@@@oooooooooooooooo    ",
"    @@@@####@@@@@@@@@@@@@@@@@@@@@@@@oooo@@@@oooooooooooooooo    ",
"    @@@@####@@@@@@@@@@@@@@@@@@@@@@@@oooo@@@@oooooooooooooooo    ",
"    @@@@####@@@@@@@@@@@@@@@@@@@@@@@@oooo@@@@oooooooooooooooo    ",
"                                                                ",
"                                                                ",
"                                                                ",
"                                                                "
};
