/* XPM */
static char *result[] = {
/* columns rows colors chars-per-pixel */
"64 64 12 1 ",
"  c #4C4D4F",
". c #565555",
"X c #545659",
"o c #585B5E",
"O c #585B65",
"+ c #605F68",
"@ c #5E6467",
"# c #61666A",
"$ c #63686C",
"% c #696D71",
"& c #716F77",
"* c #6E7477",
/* pixels */
"####$$$$$$$$$$$$$$$$%%%%@@@@@@@@$$$$$$$$####$$$$####$$$$%%%%@@@@",
"####$$$$$$$$$$$$$$$$%%%%@@@@@@@@$$$$$$$$####$$$$####$$$$%%%%@@@@",
"####$$$$$$$$$$$$$$$$%%%%@@@@@@@@$$$$$$$$####$$$$####$$$$%%%%@@@@",
"####$$$$$$$$$$$$$$$$%%%%@@@@@@@@$$$$$$$$####$$$$####$$$$%%%%@@@@",
"####$$$$####@@@@$$$$$$$$%%%%OOOO####@@@@@@@@@@@@####@@@@****oooo",
"####$$$$####@@@@$$$$$$$$%%%%OOOO####@@@@@@@@@@@@####@@@@****oooo",
"####$$$$####@@@@$$$$$$$$%%%%OOOO####@@@@@@@@@@@@####@@@@****oooo",
"####$$$$####@@@@$$$$$$$$%%%%OOOO####@@@@@@@@@@@@####@@@@****oooo",
"####$$$$$$$$$$$$$$$$####%%%%XXXX@@@@%%%%########@@@@$$$$%%%%oooo",
"####$$$$$$$$$$$$$$$$####%%%%XXXX@@@@%%%%########@@@@$$$$%%%%oooo",
"####$$$$$$$$$$$$$$$$####%%%%XXXX@@@@%%%%########@@@@$$$$%%%%oooo",
"####$$$$$$$$$$$$$$$$####%%%%XXXX@@@@%%%%########@@@@$$$$%%%%oooo",
"####@@@@####$$$$@@@@@@@@%%%%XXXX$$$$@@@@####@@@@@@@@####%%%%@@@@",
"####@@@@####$$$$@@@@@@@@%%%%XXXX$$$$@@@@####@@@@@@@@####%%%%@@@@",
"####@@@@####$$$$@@@@@@@@%%%%XXXX$$$$@@@@####@@@@@@@@####%%%%@@@@",
"####@@@@####$$$$@@@@@@@@%%%%XXXX$$$$@@@@####@@@@@@@@####%%%%@@@@",
"####****####$$$$$$$$%%%%%%%%OOOO@@@@####%%%%$$$$####@@@@$$$$@@@@",
"####****####$$$$$$$$%%%%%%%%OOOO@@@@####%%%%$$$$####@@@@$$$$@@@@",
"####****####$$$$$$$$%%%%%%%%OOOO@@@@####%%%%$$$$####@@@@$$$$@@@@",
"####****####$$$$$$$$%%%%%%%%OOOO@@@@####%%%%$$$$####@@@@$$$$@@@@",
"$$$$$$$$####%%%%$$$$@@@@%%%%oooo####$$$$OOOO########@@@@$$$$OOOO",
"$$$$$$$$####%%%%$$$$@@@@%%%%oooo####$$$$OOOO########@@@@$$$$OOOO",
"$$$$$$$$####%%%%$$$$@@@@%%%%oooo####$$$$OOOO########@@@@$$$$OOOO",
"$$$$$$$$####%%%%$$$$@@@@%%%%oooo####$$$$OOOO########@@@@$$$$OOOO",
"$$$$@@@@$$$$%%%%########%%%%    %%%%++++@@@@@@@@@@@@@@@@%%%%XXXX",
"$$$$@@@@$$$$%%%%########%%%%    %%%%++++@@@@@@@@@@@@@@@@%%%%XXXX",
"$$$$@@@@$$$$%%%%########%%%%    %%%%++++@@@@@@@@@@@@@@@@%%%%XXXX",
"$$$$@@@@$$$$%%%%########%%%%    %%%%++++@@@@@@@@@@@@@@@@%%%%XXXX",
"@@@@@@@@@@@@oooo@@@@....####OOOO@@@@####@@@@OOOOOOOO@@@@@@@@@@@@",
"@@@@@@@@@@@@oooo@@@@....####OOOO@@@@####@@@@OOOOOOOO@@@@@@@@@@@@",
"@@@@@@@@@@@@oooo@@@@....####OOOO@@@@####@@@@OOOOOOOO@@@@@@@@@@@@",
"@@@@@@@@@@@@oooo@@@@....####OOOO@@@@####@@@@OOOOOOOO@@@@@@@@@@@@",
"++++++++####++++####%%%%####@@@@%%%%$$$$$$$$$$$$%%%%$$$$$$$$@@@@",
"++++++++####++++####%%%%####@@@@%%%%$$$$$$$$$$$$%%%%$$$$$$$$@@@@",
"++++++++####++++####%%%%####@@@@%%%%$$$$$$$$$$$$%%%%$$$$$$$$@@@@",
"++++++++####++++####%%%%####@@@@%%%%$$$$$$$$$$$$%%%%$$$$$$$$@@@@",
"++++++++++++OOOO++++++++%%%%####$$$$%%%%****####$$$$$$$$****OOOO",
"++++++++++++OOOO++++++++%%%%####$$$$%%%%****####$$$$$$$$****OOOO",
"++++++++++++OOOO++++++++%%%%####$$$$%%%%****####$$$$$$$$****OOOO",
"++++++++++++OOOO++++++++%%%%####$$$$%%%%****####$$$$$$$$****OOOO",
"++++####++++########++++%%%%XXXX$$$$$$$$$$$$@@@@####$$$$****@@@@",
"++++####++++########++++%%%%XXXX$$$$$$$$$$$$@@@@####$$$$****@@@@",
"++++####++++########++++%%%%XXXX$$$$$$$$$$$$@@@@####$$$$****@@@@",
"++++####++++########++++%%%%XXXX$$$$$$$$$$$$@@@@####$$$$****@@@@",
"++++++++++++++++++++OOOO%%%%XXXX$$$$$$$$$$$$####$$$$####%%%%OOOO",
"++++++++++++++++++++OOOO%%%%XXXX$$$$$$$$$$$$####$$$$####%%%%OOOO",
"++++++++++++++++++++OOOO%%%%XXXX$$$$$$$$$$$$####$$$$####%%%%OOOO",
"++++++++++++++++++++OOOO%%%%XXXX$$$$$$$$$$$$####$$$$####%%%%OOOO",
"####++++++++$$$$++++++++%%%%OOOO####@@@@****####$$$$%%%%$$$$OOOO",
"####++++++++$$$$++++++++%%%%OOOO####@@@@****####$$$$%%%%$$$$OOOO",
"####++++++++$$$$++++++++%%%%OOOO####@@@@****####$$$$%%%%$$$$OOOO",
"####++++++++$$$$++++++++%%%%OOOO####@@@@****####$$$$%%%%$$$$OOOO",
"$$$$$$$$++++++++OOOO++++&&&&oooo%%%%$$$$$$$$####$$$$@@@@****    ",
"$$$$$$$$++++++++OOOO++++&&&&oooo%%%%$$$$$$$$####$$$$@@@@****    ",
"$$$$$$$$++++++++OOOO++++&&&&oooo%%%%$$$$$$$$####$$$$@@@@****    ",
"$$$$$$$$++++++++OOOO++++&&&&oooo%%%%$$$$$$$$####$$$$@@@@****    ",
"++++++++++++++++++++OOOO$$$$OOOO@@@@####@@@@@@@@@@@@####%%%%oooo",
"++++++++++++++++++++OOOO$$$$OOOO@@@@####@@@@@@@@@@@@####%%%%oooo",
"++++++++++++++++++++OOOO$$$$OOOO@@@@####@@@@@@@@@@@@####%%%%oooo",
"++++++++++++++++++++OOOO$$$$OOOO@@@@####@@@@@@@@@@@@####%%%%oooo",
"++++OOOOOOOO++++OOOOOOOO&&&&$$$$@@@@ooooOOOO$$$$....XXXX$$$$XXXX",
"++++OOOOOOOO++++OOOOOOOO&&&&$$$$@@@@ooooOOOO$$$$....XXXX$$$$XXXX",
"++++OOOOOOOO++++OOOOOOOO&&&&$$$$@@@@ooooOOOO$$$$....XXXX$$$$XXXX",
"++++OOOOOOOO++++OOOOOOOO&&&&$$$$@@@@ooooOOOO$$$$....XXXX$$$$XXXX"
};
