/* XPM */
static char *result[] = {
/* columns rows colors chars-per-pixel */
"64 64 12 1 ",
"  c #000008",
". c #8B3E2A",
"X c #8C3F2B",
"o c #AF5000",
"O c #EB6300",
"+ c #B76742",
"@ c #B76744",
"# c #C2734A",
"$ c #C2734C",
"% c #EFA367",
"& c #FFC887",
"* c None",
/* pixels */
"*******************                       **********************",
"*******************                       **********************",
"*******************                       **********************",
"*******************                       **********************",
"****************   ++++...............++++    ******************",
"****************   ++++...............++++    ******************",
"****************   ++++...............++++    ******************",
"************    @@@XXXX               XXXX@@@@   ***************",
"************    @@@XXXX               XXXX@@@@   ***************",
"************    @@@XXXX               XXXX@@@@   ***************",
"************    @@@XXXX               XXXX@@@@   ***************",
"************    XXX    $$$$%%%%%%%%$$$    XXXX   ***************",
"************    XXX    $$$$%%%%%%%%$$$    XXXX   ***************",
"************    XXX    $$$$%%%%%%%%$$$    XXXX   ***************",
"************    XXX    $$$$%%%%%%%%$$$    XXXX   ***************",
"************       $$$$%%%%&&&%%%%%%%%$$$$       ***************",
"************       $$$$%%%%&&&%%%%%%%%$$$$       ***************",
"************       $$$$%%%%&&&%%%%%%%%$$$$       ***************",
"************       $$$$%%%%&&&%%%%%%%%$$$$       ***************",
"************       %%%%    %%%%%%%%   %%%%       ***************",
"************       %%%%    %%%%%%%%   %%%%       ***************",
"************       %%%%    %%%%%%%%   %%%%       ***************",
"************    $$$%%%%    %%%%%%%%   %%%%$$$$   ***************",
"************    $$$%%%%    %%%%%%%%   %%%%$$$$   ***************",
"************    $$$%%%%    %%%%%%%%   %%%%$$$$   ***************",
"************    $$$%%%%    %%%%%%%%   %%%%$$$$   ***************",
"****************   $$$$%%%%%%%%%%%%%%%$$$$    ******************",
"****************   $$$$%%%%%%%%%%%%%%%$$$$    ******************",
"****************   $$$$%%%%%%%%%%%%%%%$$$$    ******************",
"****************   $$$$%%%%%%%%%%%%%%%$$$$    ******************",
"************    ooo                       oooo   ***************",
"************    ooo                       oooo   ***************",
"************    ooo                       oooo   ***************",
"************    ooo                       oooo   ***************",
"********        OOOoooooooo$$$$$$$$oooooooOOOO       ***********",
"********        OOOoooooooo$$$$$$$$oooooooOOOO       ***********",
"********        OOOoooooooo$$$$$$$$oooooooOOOO       ***********",
"********        OOOoooooooo$$$$$$$$oooooooOOOO       ***********",
"********    %%%%$$$    ooooOOOOOOOOooo    $$$$%%%&&&&    *******",
"********    %%%%$$$    ooooOOOOOOOOooo    $$$$%%%&&&&    *******",
"********    %%%%$$$    ooooOOOOOOOOooo    $$$$%%%&&&&    *******",
"************           OOOOOOOOOOOOOOO    $$$$$$$%%%%    *******",
"************           OOOOOOOOOOOOOOO    $$$$$$$%%%%    *******",
"************           OOOOOOOOOOOOOOO    $$$$$$$%%%%    *******",
"************           OOOOOOOOOOOOOOO    $$$$$$$%%%%    *******",
"*******************    OOOOOOOOOOOOOOO               ***********",
"*******************    OOOOOOOOOOOOOOO               ***********",
"*******************    OOOOOOOOOOOOOOO               ***********",
"*******************    OOOOOOOOOOOOOOO               ***********",
"*******************    OOOOOOOoooooooo    **********************",
"*******************    OOOOOOOoooooooo    **********************",
"*******************    OOOOOOOoooooooo    **********************",
"*******************    ooooooo     ###    **********************",
"*******************    ooooooo     ###    **********************",
"*******************    ooooooo     ###    **********************",
"*******************    ooooooo     ###    **********************",
"****************       %%%%%%%                ******************",
"****************       %%%%%%%                ******************",
"****************       %%%%%%%                ******************",
"****************       %%%%%%%                ******************",
"*******************                *****************************",
"*******************                *****************************",
"*******************                *****************************",
"*******************                *****************************"
};
