/* XPM */
static char *result[] = {
/* columns rows colors chars-per-pixel */
"64 64 12 1 ",
"  c #000008",
". c #8B3E2A",
"X c #8C3F2B",
"o c #AF5000",
"O c #EB6300",
"+ c #B76742",
"@ c #B76744",
"# c #C2734A",
"$ c #C2734C",
"% c #EFA367",
"& c #FFC887",
"* c None",
/* pixels */
"***********************                       ******************",
"***********************                       ******************",
"***********************                       ******************",
"***********************                       ******************",
"*******************    ++++...............++++   ***************",
"*******************    ++++...............++++   ***************",
"*******************    ++++...............++++   ***************",
"***************    @@@@XXXX               XXXX@@@    ***********",
"***************    @@@@XXXX               XXXX@@@    ***********",
"***************    @@@@XXXX               XXXX@@@    ***********",
"***************    @@@@XXXX               XXXX@@@    ***********",
"***************    XXXX    $$$%%%%%%%%$$$$    XXX    ***********",
"***************    XXXX    $$$%%%%%%%%$$$$    XXX    ***********",
"***************    XXXX    $$$%%%%%%%%$$$$    XXX    ***********",
"***************    XXXX    $$$%%%%%%%%$$$$    XXX    ***********",
"***************        $$$$%%%&&&&%%%%%%%%$$$$       ***********",
"***************        $$$$%%%&&&&%%%%%%%%$$$$       ***********",
"***************        $$$$%%%&&&&%%%%%%%%$$$$       ***********",
"***************        $$$$%%%&&&&%%%%%%%%$$$$       ***********",
"***************        %%%%   %%%%%%%%    %%%%       ***********",
"***************        %%%%   %%%%%%%%    %%%%       ***********",
"***************        %%%%   %%%%%%%%    %%%%       ***********",
"***************    $$$$%%%%   %%%%%%%%    %%%%$$$    ***********",
"***************    $$$$%%%%   %%%%%%%%    %%%%$$$    ***********",
"***************    $$$$%%%%   %%%%%%%%    %%%%$$$    ***********",
"***************    $$$$%%%%   %%%%%%%%    %%%%$$$    ***********",
"*******************    $$$$%%%%%%%%%%%%%%%$$$$   ***************",
"*******************    $$$$%%%%%%%%%%%%%%%$$$$   ***************",
"*******************    $$$$%%%%%%%%%%%%%%%$$$$   ***************",
"*******************    $$$$%%%%%%%%%%%%%%%$$$$   ***************",
"***************    oooo                       ooo    ***********",
"***************    oooo                       ooo    ***********",
"***************    oooo                       ooo    ***********",
"***************    oooo                       ooo    ***********",
"************       OOOOooooooo$$$$$$$$ooooooooOOO        *******",
"************       OOOOooooooo$$$$$$$$ooooooooOOO        *******",
"************       OOOOooooooo$$$$$$$$ooooooooOOO        *******",
"************       OOOOooooooo$$$$$$$$ooooooooOOO        *******",
"********    &&&%%%%$$$$    oooOOOOOOOOoooo    $$$%%%%    *******",
"********    &&&%%%%$$$$    oooOOOOOOOOoooo    $$$%%%%    *******",
"********    &&&%%%%$$$$    oooOOOOOOOOoooo    $$$%%%%    *******",
"********    %%%$$$$$$$$    OOOOOOOOOOOOOOO           ***********",
"********    %%%$$$$$$$$    OOOOOOOOOOOOOOO           ***********",
"********    %%%$$$$$$$$    OOOOOOOOOOOOOOO           ***********",
"********    %%%$$$$$$$$    OOOOOOOOOOOOOOO           ***********",
"************               OOOOOOOOOOOOOOO    ******************",
"************               OOOOOOOOOOOOOOO    ******************",
"************               OOOOOOOOOOOOOOO    ******************",
"************               OOOOOOOOOOOOOOO    ******************",
"***********************    oooooooOOOOOOOO    ******************",
"***********************    oooooooOOOOOOOO    ******************",
"***********************    oooooooOOOOOOOO    ******************",
"***********************    ###    oooooooo    ******************",
"***********************    ###    oooooooo    ******************",
"***********************    ###    oooooooo    ******************",
"***********************    ###    oooooooo    ******************",
"*******************               %%%%%%%%       ***************",
"*******************               %%%%%%%%       ***************",
"*******************               %%%%%%%%       ***************",
"*******************               %%%%%%%%       ***************",
"******************************                ******************",
"******************************                ******************",
"******************************                ******************",
"******************************                ******************"
};
