/* XPM */
static char *result[] = {
/* columns rows colors chars-per-pixel */
"64 64 10 1 ",
"  c black",
". c #8B3E2A",
"X c #8C3F2B",
"o c #AF5000",
"O c #EB6300",
"+ c #B76742",
"@ c #C2734C",
"# c #EFA367",
"$ c #FFC887",
"% c None",
/* pixels */
"%%%%%%%%%%%%%%%%%%                         %%%%%%%%%%%%%%%%%%%%%",
"%%%%%%%%%%%%%%%%%%                         %%%%%%%%%%%%%%%%%%%%%",
"%%%%%%%%%%%%%%%%%%                         %%%%%%%%%%%%%%%%%%%%%",
"%%%%%%%%%%%%%%%%%%                         %%%%%%%%%%%%%%%%%%%%%",
"%%%%%%%%%%%%%     ++++............+++++++++    %%%%%%%%%%%%%%%%%",
"%%%%%%%%%%%%%     ++++............+++++++++    %%%%%%%%%%%%%%%%%",
"%%%%%%%%%%%%%     ++++............+++++++++    %%%%%%%%%%%%%%%%%",
"%%%%%%%%%%%%%     ++++............+++++++++    %%%%%%%%%%%%%%%%%",
"%%%%%%%%%%%%%     ++++............+++++++++    %%%%%%%%%%%%%%%%%",
"%%%%%%%%%%%%%                 .............++++    %%%%%%%%%%%%%",
"%%%%%%%%%%%%%                 .............++++    %%%%%%%%%%%%%",
"%%%%%%%%%%%%%                 .............++++    %%%%%%%%%%%%%",
"%%%%%%%%%%%%%                 .............++++    %%%%%%%%%%%%%",
"%%%%%%%%%%%%%     @@@@@@@@@@@@    XXXXXXXXX++++    %%%%%%%%%%%%%",
"%%%%%%%%%%%%%     @@@@@@@@@@@@    XXXXXXXXX++++    %%%%%%%%%%%%%",
"%%%%%%%%%%%%%     @@@@@@@@@@@@    XXXXXXXXX++++    %%%%%%%%%%%%%",
"%%%%%%%%%%%%%     @@@@@@@@@@@@    XXXXXXXXX++++    %%%%%%%%%%%%%",
"%%%%%%%%%%%%%     ####$$$$####@@@@     XXXXXXXX    %%%%%%%%%%%%%",
"%%%%%%%%%%%%%     ####$$$$####@@@@     XXXXXXXX    %%%%%%%%%%%%%",
"%%%%%%%%%%%%%     ####$$$$####@@@@     XXXXXXXX    %%%%%%%%%%%%%",
"%%%%%%%%%%%%%     ####$$$$####@@@@     XXXXXXXX    %%%%%%%%%%%%%",
"%%%%%%%%%%%%%     ####    ####@@@@         XXXX    %%%%%%%%%%%%%",
"%%%%%%%%%%%%%     ####    ####@@@@         XXXX    %%%%%%%%%%%%%",
"%%%%%%%%%%%%%     ####    ####@@@@         XXXX    %%%%%%%%%%%%%",
"%%%%%%%%%%%%%     ####    ####@@@@         XXXX    %%%%%%%%%%%%%",
"%%%%%%%%%%%%%     ####    ####@@@@         XXXX    %%%%%%%%%%%%%",
"%%%%%%%%%    $$$$$####    #################        %%%%%%%%%%%%%",
"%%%%%%%%%    $$$$$####    #################        %%%%%%%%%%%%%",
"%%%%%%%%%    $$$$$####    #################        %%%%%%%%%%%%%",
"%%%%%%%%%    $$$$$####    #################        %%%%%%%%%%%%%",
"%%%%%%%%%%%%%     @@@@############@@@@@        %%%%%%%%%%%%%%%%%",
"%%%%%%%%%%%%%     @@@@############@@@@@        %%%%%%%%%%%%%%%%%",
"%%%%%%%%%%%%%     @@@@############@@@@@        %%%%%%%%%%%%%%%%%",
"%%%%%%%%%%%%%     @@@@############@@@@@        %%%%%%%%%%%%%%%%%",
"%%%%%%%%%                                          %%%%%%%%%%%%%",
"%%%%%%%%%                                          %%%%%%%%%%%%%",
"%%%%%%%%%                                          %%%%%%%%%%%%%",
"%%%%%%%%%                                          %%%%%%%%%%%%%",
"%%%%%%%%%                                          %%%%%%%%%%%%%",
"%%%%%    #########oooo    oooooooooooooooooOOOOoooo     %%%%%%%%",
"%%%%%    #########oooo    oooooooooooooooooOOOOoooo     %%%%%%%%",
"%%%%%    #########oooo    oooooooooooooooooOOOOoooo     %%%%%%%%",
"%%%%%    #########oooo    oooooooooooooooooOOOOoooo     %%%%%%%%",
"%%%%%    @@@@@@@@@oooo    ooooooooOOOOOOOOO    #########    %%%%",
"%%%%%    @@@@@@@@@oooo    ooooooooOOOOOOOOO    #########    %%%%",
"%%%%%    @@@@@@@@@oooo    ooooooooOOOOOOOOO    #########    %%%%",
"%%%%%    @@@@@@@@@oooo    ooooooooOOOOOOOOO    #########    %%%%",
"%%%%%%%%%             oooo    OOOOOOOOOoooo    #########    %%%%",
"%%%%%%%%%             oooo    OOOOOOOOOoooo    #########    %%%%",
"%%%%%%%%%             oooo    OOOOOOOOOoooo    #########    %%%%",
"%%%%%%%%%             oooo    OOOOOOOOOoooo    #########    %%%%",
"%%%%%%%%%    #####@@@@oooooooo    ooooooooooooo         %%%%%%%%",
"%%%%%%%%%    #####@@@@oooooooo    ooooooooooooo         %%%%%%%%",
"%%%%%%%%%    #####@@@@oooooooo    ooooooooooooo         %%%%%%%%",
"%%%%%%%%%    #####@@@@oooooooo    ooooooooooooo         %%%%%%%%",
"%%%%%%%%%%%%%     ########             ########@@@@     %%%%%%%%",
"%%%%%%%%%%%%%     ########             ########@@@@     %%%%%%%%",
"%%%%%%%%%%%%%     ########             ########@@@@     %%%%%%%%",
"%%%%%%%%%%%%%     ########             ########@@@@     %%%%%%%%",
"%%%%%%%%%%%%%     ########             ########@@@@     %%%%%%%%",
"%%%%%                                                       %%%%",
"%%%%%                                                       %%%%",
"%%%%%                                                       %%%%",
"%%%%%                                                       %%%%"
};
