/* XPM */
static char *result[] = {
/* columns rows colors chars-per-pixel */
"64 64 10 1 ",
"  c black",
". c #8B3E2A",
"X c #8C3F2B",
"o c #AF5000",
"O c #EB6300",
"+ c #B76742",
"@ c #C2734C",
"# c #EFA367",
"$ c #FFC887",
"% c None",
/* pixels */
"%%%%%%%%%%%%%%%%%%%%                        %%%%%%%%%%%%%%%%%%%%",
"%%%%%%%%%%%%%%%%%%%%                        %%%%%%%%%%%%%%%%%%%%",
"%%%%%%%%%%%%%%%%%%%%                        %%%%%%%%%%%%%%%%%%%%",
"%%%%%%%%%%%%%%%%%%%%                        %%%%%%%%%%%%%%%%%%%%",
"%%%%%%%%%%%%%%%%    ++++++++............++++    %%%%%%%%%%%%%%%%",
"%%%%%%%%%%%%%%%%    ++++++++............++++    %%%%%%%%%%%%%%%%",
"%%%%%%%%%%%%%%%%    ++++++++............++++    %%%%%%%%%%%%%%%%",
"%%%%%%%%%%%%%%%%    ++++++++............++++    %%%%%%%%%%%%%%%%",
"%%%%%%%%%%%%    ++++............                %%%%%%%%%%%%%%%%",
"%%%%%%%%%%%%    ++++............                %%%%%%%%%%%%%%%%",
"%%%%%%%%%%%%    ++++............                %%%%%%%%%%%%%%%%",
"%%%%%%%%%%%%    ++++............                %%%%%%%%%%%%%%%%",
"%%%%%%%%%%%%    ++++XXXXXXXX    @@@@@@@@@@@@    %%%%%%%%%%%%%%%%",
"%%%%%%%%%%%%    ++++XXXXXXXX    @@@@@@@@@@@@    %%%%%%%%%%%%%%%%",
"%%%%%%%%%%%%    ++++XXXXXXXX    @@@@@@@@@@@@    %%%%%%%%%%%%%%%%",
"%%%%%%%%%%%%    ++++XXXXXXXX    @@@@@@@@@@@@    %%%%%%%%%%%%%%%%",
"%%%%%%%%%%%%    XXXXXXXX    @@@@####$$$$####    %%%%%%%%%%%%%%%%",
"%%%%%%%%%%%%    XXXXXXXX    @@@@####$$$$####    %%%%%%%%%%%%%%%%",
"%%%%%%%%%%%%    XXXXXXXX    @@@@####$$$$####    %%%%%%%%%%%%%%%%",
"%%%%%%%%%%%%    XXXXXXXX    @@@@####$$$$####    %%%%%%%%%%%%%%%%",
"%%%%%%%%%%%%    XXXX        @@@@####    ####    %%%%%%%%%%%%%%%%",
"%%%%%%%%%%%%    XXXX        @@@@####    ####    %%%%%%%%%%%%%%%%",
"%%%%%%%%%%%%    XXXX        @@@@####    ####    %%%%%%%%%%%%%%%%",
"%%%%%%%%%%%%    XXXX        @@@@####    ####    %%%%%%%%%%%%%%%%",
"%%%%%%%%%%%%        ################    ####$$$$    %%%%%%%%%%%%",
"%%%%%%%%%%%%        ################    ####$$$$    %%%%%%%%%%%%",
"%%%%%%%%%%%%        ################    ####$$$$    %%%%%%%%%%%%",
"%%%%%%%%%%%%        ################    ####$$$$    %%%%%%%%%%%%",
"%%%%%%%%%%%%%%%%        @@@@############@@@@    %%%%%%%%%%%%%%%%",
"%%%%%%%%%%%%%%%%        @@@@############@@@@    %%%%%%%%%%%%%%%%",
"%%%%%%%%%%%%%%%%        @@@@############@@@@    %%%%%%%%%%%%%%%%",
"%%%%%%%%%%%%%%%%        @@@@############@@@@    %%%%%%%%%%%%%%%%",
"%%%%%%%%%%%%    oooooooo                    %%%%%%%%%%%%%%%%%%%%",
"%%%%%%%%%%%%    oooooooo                    %%%%%%%%%%%%%%%%%%%%",
"%%%%%%%%%%%%    oooooooo                    %%%%%%%%%%%%%%%%%%%%",
"%%%%%%%%%%%%    oooooooo                    %%%%%%%%%%%%%%%%%%%%",
"%%%%%%%%%%%%    OOOOOOOO    oooooooo    %%%%%%%%%%%%%%%%%%%%%%%%",
"%%%%%%%%%%%%    OOOOOOOO    oooooooo    %%%%%%%%%%%%%%%%%%%%%%%%",
"%%%%%%%%%%%%    OOOOOOOO    oooooooo    %%%%%%%%%%%%%%%%%%%%%%%%",
"%%%%%%%%%%%%    OOOOOOOO    oooooooo    %%%%%%%%%%%%%%%%%%%%%%%%",
"%%%%%%%%%%%%    OOOO########    OOOO    %%%%%%%%%%%%%%%%%%%%%%%%",
"%%%%%%%%%%%%    OOOO########    OOOO    %%%%%%%%%%%%%%%%%%%%%%%%",
"%%%%%%%%%%%%    OOOO########    OOOO    %%%%%%%%%%%%%%%%%%%%%%%%",
"%%%%%%%%%%%%    OOOO########    OOOO    %%%%%%%%%%%%%%%%%%%%%%%%",
"%%%%%%%%%%%%%%%%    ########    oooo    %%%%%%%%%%%%%%%%%%%%%%%%",
"%%%%%%%%%%%%%%%%    ########    oooo    %%%%%%%%%%%%%%%%%%%%%%%%",
"%%%%%%%%%%%%%%%%    ########    oooo    %%%%%%%%%%%%%%%%%%%%%%%%",
"%%%%%%%%%%%%%%%%    ########    oooo    %%%%%%%%%%%%%%%%%%%%%%%%",
"%%%%%%%%%%%%%%%%            OOOO        %%%%%%%%%%%%%%%%%%%%%%%%",
"%%%%%%%%%%%%%%%%            OOOO        %%%%%%%%%%%%%%%%%%%%%%%%",
"%%%%%%%%%%%%%%%%            OOOO        %%%%%%%%%%%%%%%%%%%%%%%%",
"%%%%%%%%%%%%%%%%            OOOO        %%%%%%%%%%%%%%%%%%%%%%%%",
"%%%%%%%%%%%%%%%%    ooooooooOOOO    %%%%%%%%%%%%%%%%%%%%%%%%%%%%",
"%%%%%%%%%%%%%%%%    ooooooooOOOO    %%%%%%%%%%%%%%%%%%%%%%%%%%%%",
"%%%%%%%%%%%%%%%%    ooooooooOOOO    %%%%%%%%%%%%%%%%%%%%%%%%%%%%",
"%%%%%%%%%%%%%%%%    ooooooooOOOO    %%%%%%%%%%%%%%%%%%%%%%%%%%%%",
"%%%%%%%%%%%%%%%%    @@@@############    %%%%%%%%%%%%%%%%%%%%%%%%",
"%%%%%%%%%%%%%%%%    @@@@############    %%%%%%%%%%%%%%%%%%%%%%%%",
"%%%%%%%%%%%%%%%%    @@@@############    %%%%%%%%%%%%%%%%%%%%%%%%",
"%%%%%%%%%%%%%%%%    @@@@############    %%%%%%%%%%%%%%%%%%%%%%%%",
"%%%%%%%%%%%%                                %%%%%%%%%%%%%%%%%%%%",
"%%%%%%%%%%%%                                %%%%%%%%%%%%%%%%%%%%",
"%%%%%%%%%%%%                                %%%%%%%%%%%%%%%%%%%%",
"%%%%%%%%%%%%                                %%%%%%%%%%%%%%%%%%%%"
};
