/* XPM */
static char *result[] = {
/* columns rows colors chars-per-pixel */
"64 64 30 1 ",
"  c #211E1D",
". c #282925",
"X c #2E2F2C",
"o c #353531",
"O c #3A3636",
"+ c #3D3D39",
"@ c #403E3D",
"# c #49443D",
"$ c #464442",
"% c #494743",
"& c #574D47",
"* c #67554C",
"= c #6A5A54",
"- c #735E55",
"; c #776057",
": c #79645C",
"> c #7C695F",
", c #816D63",
"< c #816F65",
"1 c #867166",
"2 c #88746A",
"3 c #998575",
"4 c #A39878",
"5 c #AB9A88",
"6 c #B7B28C",
"7 c #BCB696",
"8 c #C3BB9C",
"9 c #C8C3AA",
"0 c #CAC4B4",
"q c #E5DDD1",
/* pixels */
"    44443333555555553333qqqq777766667777qqqq@@@@++++OOOO++++    ",
"    44443333555555553333qqqq777766667777qqqq@@@@++++OOOO++++    ",
"    44443333555555553333qqqq777766667777qqqq@@@@++++OOOO++++    ",
"    44443333555555553333qqqq777766667777qqqq@@@@++++OOOO++++    ",
"    55553333555555553333qqqq999999999999qqqqoooo++++OOOO....    ",
"    55553333555555553333qqqq999999999999qqqqoooo++++OOOO....    ",
"    55553333555555553333qqqq999999999999qqqqoooo++++OOOO....    ",
"    55553333555555553333qqqq999999999999qqqqoooo++++OOOO....    ",
"    11113333555533333333qqqq999999990000qqqq@@@@@@@@$$$$@@@@    ",
"    11113333555533333333qqqq999999990000qqqq@@@@@@@@$$$$@@@@    ",
"    11113333555533333333qqqq999999990000qqqq@@@@@@@@$$$$@@@@    ",
"    11113333555533333333qqqq999999990000qqqq@@@@@@@@$$$$@@@@    ",
"    11113333555555555555qqqq999999999999qqqqOOOOOOOOXXXX@@@@    ",
"    11113333555555555555qqqq999999999999qqqqOOOOOOOOXXXX@@@@    ",
"    11113333555555555555qqqq999999999999qqqqOOOOOOOOXXXX@@@@    ",
"    11113333555555555555qqqq999999999999qqqqOOOOOOOOXXXX@@@@    ",
"    33335555444444445555qqqq999977778888qqqq@@@@++++@@@@XXXX    ",
"    33335555444444445555qqqq999977778888qqqq@@@@++++@@@@XXXX    ",
"    33335555444444445555qqqq999977778888qqqq@@@@++++@@@@XXXX    ",
"    33335555444444445555qqqq999977778888qqqq@@@@++++@@@@XXXX    ",
"    33333333555555554444qqqqqqqqqqqqqqqqqqqq++++OOOO++++OOOO    ",
"    33333333555555554444qqqqqqqqqqqqqqqqqqqq++++OOOO++++OOOO    ",
"    33333333555555554444qqqqqqqqqqqqqqqqqqqq++++OOOO++++OOOO    ",
"    33333333555555554444qqqqqqqqqqqqqqqqqqqq++++OOOO++++OOOO    ",
"    11115555444455553333<<<<>>>><<<<::::2222####@@@@OOOOXXXX    ",
"    11115555444455553333<<<<>>>><<<<::::2222####@@@@OOOOXXXX    ",
"    11115555444455553333<<<<>>>><<<<::::2222####@@@@OOOOXXXX    ",
"    11115555444455553333<<<<>>>><<<<::::2222####@@@@OOOOXXXX    ",
"    33331111555533331111::::,,,,<<<<<<<<::::----@@@@XXXX++++    ",
"    33331111555533331111::::,,,,<<<<<<<<::::----@@@@XXXX++++    ",
"    33331111555533331111::::,,,,<<<<<<<<::::----@@@@XXXX++++    ",
"    33331111555533331111::::,,,,<<<<<<<<::::----@@@@XXXX++++    ",
"    1111333355552222<<<<<<<<2222<<<<22222222<<<<%%%%ooooXXXX    ",
"    1111333355552222<<<<<<<<2222<<<<22222222<<<<%%%%ooooXXXX    ",
"    1111333355552222<<<<<<<<2222<<<<22222222<<<<%%%%ooooXXXX    ",
"    1111333355552222<<<<<<<<2222<<<<22222222<<<<%%%%ooooXXXX    ",
"    33333333555522222222<<<<2222<<<<::::2222========OOOO....    ",
"    33333333555522222222<<<<2222<<<<::::2222========OOOO....    ",
"    33333333555522222222<<<<2222<<<<::::2222========OOOO....    ",
"    33333333555522222222<<<<2222<<<<::::2222========OOOO....    ",
"    333344441111;;;;<<<<<<<<::::1111****<<<<11112222%%%%OOOO    ",
"    333344441111;;;;<<<<<<<<::::1111****<<<<11112222%%%%OOOO    ",
"    333344441111;;;;<<<<<<<<::::1111****<<<<11112222%%%%OOOO    ",
"    333344441111;;;;<<<<<<<<::::1111****<<<<11112222%%%%OOOO    ",
"    22223333::::::::11112222::::2222<<<<2222;;;;::::----++++    ",
"    22223333::::::::11112222::::2222<<<<2222;;;;::::----++++    ",
"    22223333::::::::11112222::::2222<<<<2222;;;;::::----++++    ",
"    22223333::::::::11112222::::2222<<<<2222;;;;::::----++++    ",
"    55551111;;;;;;;;22222222<<<<;;;;::::&&&&&&&&;;;;;;;;####    ",
"    55551111;;;;;;;;22222222<<<<;;;;::::&&&&&&&&;;;;;;;;####    ",
"    55551111;;;;;;;;22222222<<<<;;;;::::&&&&&&&&;;;;;;;;####    ",
"    55551111;;;;;;;;22222222<<<<;;;;::::&&&&&&&&;;;;;;;;####    ",
"    1111;;;;----::::;;;;<<<<<<<<****&&&&;;;;----&&&&;;;;****    ",
"    1111;;;;----::::;;;;<<<<<<<<****&&&&;;;;----&&&&;;;;****    ",
"    1111;;;;----::::;;;;<<<<<<<<****&&&&;;;;----&&&&;;;;****    ",
"    1111;;;;----::::;;;;<<<<<<<<****&&&&;;;;----&&&&;;;;****    ",
"    ::::&&&&----<<<<----&&&&;;;;****----;;;;&&&&&&&&****----    ",
"    ::::&&&&----<<<<----&&&&;;;;****----;;;;&&&&&&&&****----    ",
"    ::::&&&&----<<<<----&&&&;;;;****----;;;;&&&&&&&&****----    ",
"    ::::&&&&----<<<<----&&&&;;;;****----;;;;&&&&&&&&****----    ",
"                                                                ",
"                                                                ",
"                                                                ",
"                                                                "
};
